<?xml version="1.0" encoding="utf-8"?>
<!-- Generator: Adobe Illustrator 22.1.0, SVG Export Plug-In . SVG Version: 6.00 Build 0)  -->
<svg version="1.1" id="Слой_2" xmlns="http://www.w3.org/2000/svg" xmlns:xlink="http://www.w3.org/1999/xlink" x="0px" y="0px"
	 viewBox="0 0 100 100" style="enable-background:new 0 0 100 100;" xml:space="preserve">
<style type="text/css">
	.st0{fill:#FFFFFF;}
</style>
<path class="st0" d="M15.1,85L15.1,85c-5.5-2.5-8-9-5.5-14.5l23.8-52.9c2.5-5.5,9-8,14.5-5.5l0,0c5.5,2.5,8,9,5.5,14.5L29.6,79.5
	C27.1,85,20.6,87.5,15.1,85z"/>
<path class="st0" d="M44.1,87L44.1,87c-5.5-2.5-8-9-5.5-14.5L47.8,52c2.5-5.5,9-8,14.5-5.5l0,0c5.5,2.5,8,9,5.5,14.5l-9.2,20.4
	C56.1,87,49.6,89.5,44.1,87z"/>
<path class="st0" d="M63.1,44L63.1,44c-5.5-2.5-8-9-5.5-14.5l0,0c2.5-5.5,9-8,14.5-5.5l0,0c5.5,2.5,8,9,5.5,14.5l0,0
	C75.1,44,68.6,46.5,63.1,44z"/>
<path class="st0" d="M71.1,87L71.1,87c-5.5-2.5-8-9-5.5-14.5l0,0c2.5-5.5,9-8,14.5-5.5l0,0c5.5,2.5,8,9,5.5,14.5l0,0
	C83.1,87,76.6,89.5,71.1,87z"/>
</svg>
